<svg width="36" height="36" viewBox="0 0 36 36" fill="none" xmlns="http://www.w3.org/2000/svg">
<rect width="36" height="36" rx="8" fill="#080523"/>
<path d="M11 15C12.6569 15 14 13.6569 14 12C14 10.3431 12.6569 9 11 9C9.34315 9 8 10.3431 8 12C8 13.6569 9.34315 15 11 15ZM11 15V27M21 15L18 12M18 12L21 9M18 12H23C23.5304 12 24.0391 12.2107 24.4142 12.5858C24.7893 12.9609 25 13.4696 25 14V17M25 21V27M28 24H22" stroke="#517222" stroke-width="2" stroke-linecap="round" stroke-linejoin="round"/>
</svg>
